<svg id="instagram" xmlns="http://www.w3.org/2000/svg" xmlns:xlink="http://www.w3.org/1999/xlink" width="15.024" height="15.027" viewBox="0 0 15.024 15.027">
  <defs>
    <linearGradient id="linear-gradient" x1="0.5" x2="0.5" y2="1" gradientUnits="objectBoundingBox">
      <stop offset="0" stop-color="#f02e46"/>
      <stop offset="1" stop-color="#517817"/>
    </linearGradient>
  </defs>
  <path id="Path_6" data-name="Path 6" d="M15.434,4.418a5.491,5.491,0,0,0-.349-1.823,3.849,3.849,0,0,0-2.2-2.2A5.5,5.5,0,0,0,11.063.047C10.259.009,10,0,7.963,0s-2.3.009-3.1.044A5.492,5.492,0,0,0,3.044.393a3.666,3.666,0,0,0-1.333.869,3.7,3.7,0,0,0-.866,1.33A5.505,5.505,0,0,0,.5,4.415c-.038.8-.047,1.06-.047,3.1s.009,2.3.044,3.1a5.49,5.49,0,0,0,.349,1.823,3.849,3.849,0,0,0,2.2,2.2,5.506,5.506,0,0,0,1.823.349c.8.035,1.057.044,3.1.044s2.3-.009,3.1-.044a5.489,5.489,0,0,0,1.823-.349,3.844,3.844,0,0,0,2.2-2.2,5.509,5.509,0,0,0,.349-1.823c.035-.8.044-1.057.044-3.1s0-2.3-.038-3.1Zm-1.353,6.135a4.119,4.119,0,0,1-.258,1.394A2.493,2.493,0,0,1,12.4,13.374,4.133,4.133,0,0,1,11,13.632c-.793.035-1.03.044-3.035.044s-2.246-.009-3.035-.044a4.117,4.117,0,0,1-1.394-.258,2.312,2.312,0,0,1-.863-.561,2.336,2.336,0,0,1-.561-.863,4.134,4.134,0,0,1-.258-1.394c-.035-.793-.044-1.03-.044-3.035s.009-2.246.044-3.035a4.117,4.117,0,0,1,.258-1.394,2.284,2.284,0,0,1,.564-.863,2.333,2.333,0,0,1,.863-.561,4.136,4.136,0,0,1,1.394-.258c.793-.035,1.03-.044,3.035-.044s2.246.009,3.035.044a4.119,4.119,0,0,1,1.394.258,2.311,2.311,0,0,1,.863.561,2.336,2.336,0,0,1,.561.863,4.135,4.135,0,0,1,.258,1.394c.035.793.044,1.03.044,3.035s-.009,2.24-.044,3.032Zm0,0" transform="translate(-0.449 0)" fill="url(#linear-gradient)"/>
  <path id="Path_7" data-name="Path 7" d="M128.809,124.5a3.86,3.86,0,1,0,3.86,3.86A3.861,3.861,0,0,0,128.809,124.5Zm0,6.364a2.5,2.5,0,1,1,2.5-2.5A2.5,2.5,0,0,1,128.809,130.864Zm0,0" transform="translate(-121.294 -120.845)" fill="url(#linear-gradient)"/>
  <path id="Path_8" data-name="Path 8" d="M364.252,89.5a.9.9,0,1,1-.9-.9A.9.9,0,0,1,364.252,89.5Zm0,0" transform="translate(-351.823 -86.001)" fill="url(#linear-gradient)"/>
</svg>
