<svg xmlns="http://www.w3.org/2000/svg" width="32" height="32.001" viewBox="0 0 32 32.001">
  <g id="success" transform="translate(-0.004)">
    <path id="Path_1" data-name="Path 1" d="M16,0A16,16,0,1,0,32,16,16,16,0,0,0,16,0Zm0,29A13,13,0,1,1,29,16,13,13,0,0,1,16,29ZM22.293,9.194a1.393,1.393,0,0,0-1.94.54l-5.365,9.637L12,15.734a1.5,1.5,0,0,0-1.939-.54,1.479,1.479,0,0,0-.521,2.014L13.7,22.27a1.754,1.754,0,0,0,1.037.715l0,.006.038,0a1.814,1.814,0,0,0,1.881-.723l6.158-11.061A1.507,1.507,0,0,0,22.293,9.194Z" fill="green"/>
  </g>
</svg>
