<svg id="viber" xmlns="http://www.w3.org/2000/svg" width="15.368" height="16.78" viewBox="0 0 15.368 16.78">
  <path id="Path_1" data-name="Path 1" d="M16.591,9.7c.5-4.21-.24-6.868-1.576-8.07h0C12.86-.423,5.58-.727,3,1.722,1.842,2.92,1.434,4.678,1.39,6.855s-.1,6.256,3.7,7.363h0l0,1.69s-.026.685.411.822c.5.162.726-.156,2.282-2.014a14.235,14.235,0,0,0,4.826-.367c.525-.176,3.5-.569,3.978-4.648ZM8.043,13.527S6.4,15.58,5.884,16.113c-.168.173-.351.157-.349-.187,0-.226.013-2.805.013-2.805-3.222-.923-3.032-4.4-3-6.214A6.105,6.105,0,0,1,3.9,2.6C6.162.477,12.544.952,14.17,2.48c1.988,1.762,1.28,6.742,1.285,6.911-.409,3.4-2.817,3.621-3.26,3.768A13.133,13.133,0,0,1,8.043,13.527Z" transform="translate(-1.38 0.013)" fill="#aa2ef0"/>
  <path id="Path_2" data-name="Path 2" d="M12.135,4.3a.212.212,0,0,0,0,.423c2.087.016,3.8,1.47,3.824,4.138a.2.2,0,1,0,.409,0h0c-.022-2.875-1.9-4.541-4.232-4.557Z" transform="translate(-4.561 -1.286)" fill="#aa2ef0"/>
  <path id="Path_3" data-name="Path 3" d="M15.035,8.89a.2.2,0,1,0,.409.01,2.829,2.829,0,0,0-2.78-3.028.212.212,0,0,0-.029.423,2.412,2.412,0,0,1,2.4,2.6Z" transform="translate(-4.716 -1.761)" fill="#aa2ef0"/>
  <path id="Path_4" data-name="Path 4" d="M12.72,10.428a.645.645,0,0,0-.842.121l-.3.393a.543.543,0,0,1-.443.173,4.054,4.054,0,0,1-2.668-2.76A.587.587,0,0,1,8.63,7.9l.38-.314a.7.7,0,0,0,.117-.871,9.078,9.078,0,0,0-1.041-1.5A.562.562,0,0,0,7.33,5.08H7.324c-.6.353-1.266,1.015-1.054,1.7a11.428,11.428,0,0,0,3.14,4.737,12.075,12.075,0,0,0,3.235,1.85l.006.01c.658.219,1.3-.468,1.639-1.09v0a.6.6,0,0,0-.12-.773,8.235,8.235,0,0,0-1.45-1.077Z" transform="translate(-2.842 -1.495)" fill="#aa2ef0"/>
  <path id="Path_5" data-name="Path 5" d="M13.086,7.921c.671.039,1,.39,1.032,1.11a.2.2,0,1,0,.409-.02A1.4,1.4,0,0,0,13.109,7.5.212.212,0,0,0,13.086,7.921Z" transform="translate(-4.851 -2.251)" fill="#aa2ef0"/>
</svg>
