<svg xmlns="http://www.w3.org/2000/svg" width="35.006" height="32.001" viewBox="0 0 35.006 32.001">
  <g id="warning" transform="translate(0 -20.882)">
    <g id="Group_2" data-name="Group 2" transform="translate(0 20.882)">
      <g id="Group_1" data-name="Group 1" transform="translate(0 0)">
        <path id="Path_2" data-name="Path 2" d="M220.024,333.382a1.8,1.8,0,1,0,0,3.6,1.8,1.8,0,0,0,0-3.6Z" transform="translate(-202.521 -310.894)" fill="#ff7000"/>
        <path id="Path_3" data-name="Path 3" d="M34.154,49.745a6.143,6.143,0,0,0,.014-6.217L22.9,24.012a6.209,6.209,0,0,0-10.78-.007L.836,43.542a6.232,6.232,0,0,0,5.4,9.341H28.743A6.2,6.2,0,0,0,34.154,49.745Zm-2.447-1.41a3.4,3.4,0,0,1-2.972,1.72H6.226A3.354,3.354,0,0,1,3.29,48.371a3.405,3.405,0,0,1-.007-3.433l11.283-19.53a3.389,3.389,0,0,1,5.886.007l11.276,19.53A3.36,3.36,0,0,1,31.707,48.335Z" transform="translate(0 -20.882)" fill="#ff7000"/>
        <path id="Path_4" data-name="Path 4" d="M219.114,157.227a1.956,1.956,0,0,0-1.389,1.965c.043.569.079,1.144.122,1.713.122,2.166.245,4.289.367,6.455a1.318,1.318,0,0,0,1.346,1.267,1.345,1.345,0,0,0,1.346-1.31c0-.446,0-.856.043-1.31.079-1.389.166-2.778.245-4.167.043-.9.122-1.8.165-2.7a2.222,2.222,0,0,0-.165-.9A1.8,1.8,0,0,0,219.114,157.227Z" transform="translate(-202.057 -147.368)" fill="#ff7000"/>
      </g>
    </g>
  </g>
</svg>
