<svg xmlns="http://www.w3.org/2000/svg" width="95" height="101.123" viewBox="0 0 95 101.123">
  <g id="car-door" transform="translate(-15.501)">
    <path id="Path_16" data-name="Path 16" d="M110.5,38.514a2.963,2.963,0,0,0-1.276-2.436L57.873.527A2.964,2.964,0,0,0,56.187,0H18.464A2.963,2.963,0,0,0,15.5,2.963v95.2a2.963,2.963,0,0,0,2.963,2.963h55.5a2.963,2.963,0,0,0,2.963-2.963,30.648,30.648,0,0,1,30.613-30.613,2.963,2.963,0,0,0,2.963-2.963ZM71.119,95.2H21.427V83.347H74.139A36.254,36.254,0,0,0,71.119,95.2Zm6.353-17.776H21.427V5.925H55.262l49.314,34.141V61.741A36.553,36.553,0,0,0,77.473,77.422Z" transform="translate(0 0)"/>
    <path id="Path_17" data-name="Path 17" d="M135.141,83.231,101.961,60.518A2.962,2.962,0,0,0,100.288,60H78.464A2.963,2.963,0,0,0,75.5,62.963V85.675a2.963,2.963,0,0,0,2.963,2.963h55a2.963,2.963,0,0,0,1.673-5.407Zm-53.715-.518V65.925H99.371l24.524,16.788Z" transform="translate(-48.15 -48.15)"/>
    <path id="Path_18" data-name="Path 18" d="M87.944,251h-9.48a2.963,2.963,0,0,0,0,5.925h9.48a2.963,2.963,0,0,0,0-5.925Z" transform="translate(-48.15 -201.426)"/>
  </g>
</svg>
