<svg xmlns="http://www.w3.org/2000/svg" width="160.743" height="66.092" viewBox="0 0 160.743 66.092">
  <path id="car" d="M152.7,163.631a27.279,27.279,0,0,0-19.416-8.044h-7.41c-4.8-7.463-12.506-13.824-22.446-18.5a88.062,88.062,0,0,0-37.282-7.875,88.077,88.077,0,0,0-37.285,7.875c-9.94,4.678-17.639,11.039-22.446,18.506H0V195.3H24.352s1.488-15.942,12.93-15.942S50.4,195.3,50.4,195.3h59.238s2.649-15.272,13.39-14.977c7.014.193,12.852,8.1,12.852,14.977h24.863V183.048a27.276,27.276,0,0,0-8.041-19.416ZM70.726,138.745a77,77,0,0,1,28.694,6.86,49.62,49.62,0,0,1,14.43,9.981H70.726Zm-37.85,6.86a76.834,76.834,0,0,1,28.431-6.842v16.823H18.446a49.62,49.62,0,0,1,14.43-9.981Zm118.448,40.277h-11.2c-2.082-7.774-8.048-13.514-16.469-13.514a18.253,18.253,0,0,0-17.6,13.514H54.883a18.222,18.222,0,0,0-35.206,0H9.419V165.01l123.867,0a18.036,18.036,0,0,1,18.038,18.041Z" transform="translate(0 -129.21)"/>
</svg>
