<svg xmlns="http://www.w3.org/2000/svg" width="83.133" height="65.26" viewBox="0 0 83.133 65.26">
  <path id="other" d="M17.458,28.1A2.493,2.493,0,0,1,19.952,25.6H63.181a2.494,2.494,0,0,1,0,4.988H19.952A2.493,2.493,0,0,1,17.458,28.1Zm2.494,30.415H63.181a2.494,2.494,0,0,0,0-4.988H19.952a2.494,2.494,0,0,0,0,4.988Zm0-18.732H63.181a2.494,2.494,0,0,0,0-4.988H19.952a2.494,2.494,0,1,0,0,4.988Zm0,9.542H63.181a2.494,2.494,0,0,0,0-4.988H19.952a2.494,2.494,0,1,0,0,4.988Zm55.7-30.854V65.647h4.988a2.494,2.494,0,0,1,0,4.988H2.494a2.494,2.494,0,0,1,0-4.988H7.482V18.468H2.494A2.493,2.493,0,0,1,0,15.974V7.869A2.493,2.493,0,0,1,2.494,5.375H80.639a2.493,2.493,0,0,1,2.494,2.494v8.105a2.493,2.493,0,0,1-2.494,2.494Zm-4.988,0H12.47V65.647H70.663Z" transform="translate(0 -5.375)"/>
</svg>
