<svg id="tyre" xmlns="http://www.w3.org/2000/svg" width="100" height="100" viewBox="0 0 100 100">
  <path id="Path_9" data-name="Path 9" d="M50,0a50,50,0,1,0,50,50A50.162,50.162,0,0,0,50,0Zm0,94.141A44.141,44.141,0,1,1,94.141,50,44.191,44.191,0,0,1,50,94.141Zm0,0"/>
  <path id="Path_10" data-name="Path 10" d="M128.055,97a31.055,31.055,0,1,0,31.055,31.055A31.09,31.09,0,0,0,128.055,97Zm0,37.5a6.445,6.445,0,1,1,6.445-6.445A6.453,6.453,0,0,1,128.055,134.5Zm-25.2-6.445a25.05,25.05,0,0,1,2.061-9.974l11.322,6.537a12.249,12.249,0,0,0,0,6.874l-11.322,6.537a25.05,25.05,0,0,1-2.061-9.974Zm37.008-3.437,11.322-6.537a25.167,25.167,0,0,1,0,19.948l-11.322-6.537a12.249,12.249,0,0,0,0-6.874Zm8.385-11.607-11.321,6.537a12.3,12.3,0,0,0-5.947-3.442V103.031a25.2,25.2,0,0,1,17.268,9.979Zm-23.128-9.979v13.074a12.3,12.3,0,0,0-5.947,3.442l-11.321-6.537a25.2,25.2,0,0,1,17.268-9.979ZM107.857,143.1l11.321-6.537A12.3,12.3,0,0,0,125.125,140v13.074a25.2,25.2,0,0,1-17.268-9.979Zm23.128,9.979V140a12.3,12.3,0,0,0,5.947-3.442l11.321,6.537a25.2,25.2,0,0,1-17.268,9.979Zm0,0" transform="translate(-78.055 -78.055)"/>
</svg>
